<svg width="16" height="16" xmlns="http://www.w3.org/2000/svg" xmlns:xlink="http://www.w3.org/1999/xlink" xml:space="preserve" overflow="hidden"><defs><clipPath id="clip0"><rect x="0" y="0" width="16" height="16"/></clipPath></defs><g clip-path="url(#clip0)"><path d="M8.707 1.5C8.3165 1.10962 7.6835 1.10962 7.293 1.5L0.646 8.146C0.450491 8.34151 0.450491 8.65849 0.646 8.854 0.841509 9.04951 1.15849 9.04951 1.354 8.854L2 8.207 2 13.5C2 14.3284 2.67157 15 3.5 15L12.5 15C13.3284 15 14 14.3284 14 13.5L14 8.207 14.646 8.854C14.8415 9.04951 15.1585 9.04951 15.354 8.854 15.5495 8.65849 15.5495 8.34151 15.354 8.146L13 5.793 13 2.5C13 2.22386 12.7761 2 12.5 2L11.5 2C11.2239 2 11 2.22386 11 2.5L11 3.793 8.707 1.5ZM13 7.207 13 13.5C13 13.7761 12.7761 14 12.5 14L3.5 14C3.22386 14 3 13.7761 3 13.5L3 7.207 8 2.207 13 7.207Z" fill="#E5D7BE"/></g></svg>