<svg width="605" height="484" xmlns="http://www.w3.org/2000/svg" xmlns:xlink="http://www.w3.org/1999/xlink" xml:space="preserve" overflow="hidden"><defs><clipPath id="clip0"><rect x="0" y="0" width="605" height="484"/></clipPath></defs><g clip-path="url(#clip0)"><path d="M600.198 437.396 327.948 13.8961C322.38 5.23703 312.794 0 302.5 0 292.206 0 282.62 5.23703 277.052 13.8961L4.80219 437.396C-1.18237 446.705-1.60655 458.538 3.69617 468.251 9.00133 477.962 19.1847 484.001 30.25 484L574.75 484C585.82 484 596.001 477.959 601.304 468.242 606.607 458.532 606.182 446.701 600.198 437.396ZM302.5 86.1936 383.22 211.75 302.5 211.75 242 272.25 206.021 236.271 302.5 86.1936Z" fill="#82807F"/></g></svg>