<svg width="423" height="484" xmlns="http://www.w3.org/2000/svg" xmlns:xlink="http://www.w3.org/1999/xlink" xml:space="preserve" overflow="hidden"><defs><clipPath id="clip0"><rect x="0" y="0" width="423" height="484"/></clipPath></defs><g clip-path="url(#clip0)"><path d="M377.679 30.2143 45.3214 30.2143C20.3002 30.2143 0 50.5145 0 75.5357L0 407.893C0 432.914 20.3002 453.214 45.3214 453.214L377.679 453.214C402.7 453.214 423 432.914 423 407.893L423 75.5357C423 50.5145 402.7 30.2143 377.679 30.2143ZM226.607 302.143 181.286 302.143 181.286 347.464C181.286 355.773 174.488 362.571 166.179 362.571L135.964 362.571C127.655 362.571 120.857 355.773 120.857 347.464L120.857 135.964C120.857 127.655 127.655 120.857 135.964 120.857L226.607 120.857C276.555 120.857 317.25 161.552 317.25 211.5 317.25 261.448 276.555 302.143 226.607 302.143ZM226.607 181.286 181.286 181.286 181.286 241.714 226.607 241.714C243.225 241.714 256.821 228.118 256.821 211.5 256.821 194.882 243.225 181.286 226.607 181.286Z" fill="#82807F" transform="scale(1 1.00118)"/></g></svg>