<svg width="484" height="484" xmlns="http://www.w3.org/2000/svg" xmlns:xlink="http://www.w3.org/1999/xlink" xml:space="preserve" overflow="hidden"><defs><clipPath id="clip0"><rect x="0" y="0" width="484" height="484"/></clipPath></defs><g clip-path="url(#clip0)"><path d="M468.97 364.578 482.419 391.673C486.134 399.155 483.078 408.231 475.596 411.945L413.711 443.033C398.54 450.564 380.1 444.162 372.884 428.801L313.54 302.5 181.5 302.5C166.446 302.5 153.683 291.43 151.553 276.528 119.519 52.2833 121.359 66.2135 121 60.5 121 26.1303 149.66-1.54559 184.385 0.0671172 215.837 1.52763 241.149 27.3914 241.978 58.8665 242.799 89.9985 220.092 115.985 190.357 120.349L194.771 151.251 317.625 151.251C325.979 151.251 332.75 158.022 332.75 166.376L332.75 196.626C332.75 204.98 325.979 211.751 317.625 211.751L203.414 211.751 207.736 242.001 332.75 242.001C344.474 242.001 355.142 248.776 360.128 259.387L414.498 375.1 448.697 357.754C456.179 354.04 465.256 357.096 468.97 364.578ZM294.331 332.75 271.165 332.75C263.803 383.99 219.619 423.5 166.375 423.5 107.995 423.5 60.5 376.005 60.5 317.625 60.5 278.39 81.9529 244.071 113.744 225.782 110.235 201.237 107.274 180.54 104.775 163.077 43.4428 187.611 0 247.637 0 317.625 0 409.365 74.6353 484 166.375 484 234.315 484 292.863 443.06 318.674 384.561L294.331 332.75Z" fill="#82807F"/></g></svg>